M48
; DRILL file {KiCad 9.0.7} date 2026-03-27T17:15:01+0100
; FORMAT={-:-/ absolute / metric / decimal}
; #@! TF.CreationDate,2026-03-27T17:15:01+01:00
; #@! TF.GenerationSoftware,Kicad,Pcbnew,9.0.7
; #@! TF.FileFunction,Plated,1,2,PTH
FMAT,2
METRIC
; #@! TA.AperFunction,Plated,PTH,ViaDrill
T1C0.300
; #@! TA.AperFunction,Plated,PTH,ComponentDrill
T2C1.000
%
G90
G05
T1
X116.0Y-82.225
X116.525Y-70.1
X124.175Y-82.0
X124.45Y-78.0
X126.0Y-78.0
X128.025Y-67.0
X129.0Y-77.0
X130.0Y-74.55
X130.775Y-83.0
X133.05Y-74.81
X134.775Y-82.0
X134.825Y-79.0
X137.175Y-82.0
X137.225Y-86.0
X138.0Y-71.0
X141.0Y-71.0
X144.0Y-72.775
X150.0Y-74.175
T2
X106.3Y-103.7
X108.84Y-103.7
X111.38Y-103.7
X113.92Y-103.7
X115.44Y-55.44
X116.46Y-103.7
X117.98Y-55.44
X119.0Y-103.7
X120.52Y-55.44
X121.54Y-103.7
X123.06Y-55.44
X124.08Y-103.7
X125.6Y-55.44
X126.62Y-103.7
X128.14Y-55.44
X129.16Y-103.7
X130.68Y-55.44
X133.22Y-55.44
X133.22Y-103.7
X135.76Y-103.7
X138.3Y-55.44
X138.3Y-103.7
X140.84Y-55.44
X140.84Y-103.7
X143.38Y-55.44
X143.38Y-103.7
X145.92Y-55.44
X145.92Y-103.7
X148.46Y-55.44
X148.46Y-103.7
X151.0Y-55.44
X151.0Y-103.7
M30
